<svg width="802" height="524" xmlns="http://www.w3.org/2000/svg">
    <g>
        <g id="svg_1" clip-path="url(#clip0_511_30905)" stroke="null">
            <path id="svg_2" d="m776.38444,0l-751.15422,0c-13.93424,0 -25.23022,11.32029 -25.23022,25.28454l0,473.41344c0,13.9616 11.29598,25.28306 25.23022,25.28306l751.15422,0c13.93058,0 25.22661,-11.32146 25.22661,-25.28306l0,-473.41344c0,-13.96425 -11.29603,-25.28454 -25.22661,-25.28454z" fill="#0D0E15" stroke="null" />
            <path id="svg_3" d="m89.20403,0l0,523.98104l-63.97381,0c-6.69146,0 -13.10888,-2.66507 -17.84045,-7.40523c-4.73157,-4.74016 -7.38977,-11.17193 -7.38977,-17.87783l0,-473.41344c0,-6.70585 2.6582,-13.13711 7.38977,-17.87885c4.73157,-4.74179 11.14899,-7.40569 17.84045,-7.40569l63.97381,0z" fill="#0A0B11" stroke="null" />
            <path id="svg_4" d="m270.31988,196.06719l-181.11585,0l0,82.16804l181.11585,0l0,-82.16804z" fill="#18191d" stroke="null" />
            <path id="svg_5" d="m44.60227,315.23392c16.39323,0 29.68246,-13.31822 29.68246,-29.74654c0,-16.42832 -13.28923,-29.74654 -29.68246,-29.74654c-16.39323,0 -29.68261,13.31822 -29.68261,29.74654c0,16.42832 13.28939,29.74654 29.68261,29.74654z" fill="#2563eb" stroke="null" />
            <path id="svg_6" d="m55.98069,46.91645l-22.75674,0c-10.10916,0 -18.30429,8.21284 -18.30429,18.34366l0,22.80567c0,10.13082 8.19514,18.34371 18.30429,18.34371l22.75674,0c10.10895,0 18.30404,-8.21289 18.30404,-18.34371l0,-22.80567c0,-10.13082 -8.19509,-18.34366 -18.30404,-18.34366z" fill="#0284c7" stroke="null" />
            <path id="svg_7" d="m55.98069,116.50624l-22.75674,0c-10.10916,0 -18.30429,8.21289 -18.30429,18.34371l0,22.80567c0,10.13082 8.19514,18.34371 18.30429,18.34371l22.75674,0c10.10895,0 18.30404,-8.21289 18.30404,-18.34371l0,-22.80567c0,-10.13082 -8.19509,-18.34371 -18.30404,-18.34371z" fill="#18191d" stroke="null" />
            <path id="svg_8" d="m44.60227,245.61662c16.39323,0 29.68246,-13.31772 29.68246,-29.74654c0,-16.42832 -13.28923,-29.74654 -29.68246,-29.74654c-16.39323,0 -29.68261,13.31822 -29.68261,29.74654c0,16.42883 13.28939,29.74654 29.68261,29.74654z" fill="#18191d" stroke="null" />
            <path id="svg_9" d="m23.22557,31.57288c4.58728,0 8.30596,-3.72672 8.30596,-8.32381c0,-4.59714 -3.71869,-8.32381 -8.30596,-8.32381c-4.58722,0 -8.30591,3.72667 -8.30591,8.32381c0,4.59709 3.71869,8.32381 8.30591,8.32381z" fill="#18191d" stroke="null" />
            <path id="svg_10" d="m44.65425,31.57288c4.58722,0 8.30586,-3.72672 8.30586,-8.32381c0,-4.59714 -3.71864,-8.32381 -8.30586,-8.32381c-4.58722,0 -8.30591,3.72667 -8.30591,8.32381c0,4.59709 3.71869,8.32381 8.30591,8.32381z" fill="#18191d" stroke="null" />
            <path id="svg_11" d="m66.08303,31.57288c4.58707,0 8.30596,-3.72672 8.30596,-8.32381c0,-4.59714 -3.71889,-8.32381 -8.30596,-8.32381c-4.58758,0 -8.30596,3.72667 -8.30596,8.32381c0,4.59709 3.71838,8.32381 8.30596,8.32381z" fill="#18191d" stroke="null" />
            <path id="svg_12" d="m251.10443,46.91645l-137.29479,0c-3.22148,0 -5.83264,2.61685 -5.83264,5.84479l0,13.88175c0,3.22809 2.61116,5.84484 5.83264,5.84484l137.29479,0c3.22148,0 5.83264,-2.61675 5.83264,-5.84484l0,-13.88175c0,-3.22794 -2.61116,-5.84479 -5.83264,-5.84479z" fill="#18191d" stroke="null" />
            <path id="svg_13" d="m130.10877,178.81748c13.14327,0 23.79846,-10.67757 23.79846,-23.84932c0,-13.17175 -10.65519,-23.84932 -23.79846,-23.84932c-13.14327,0 -23.79795,10.67757 -23.79795,23.84932c0,13.17175 10.65468,23.84932 23.79795,23.84932z" fill="#0284c7" stroke="null" />
            <path id="svg_14" d="m249.12546,147.24608l-77.79967,0c-1.84368,0.28482 -3.52511,1.22115 -4.73914,2.64015c-1.21454,1.419 -1.88233,3.22707 -1.88233,5.09618c0,1.86962 0.66779,3.67769 1.88233,5.09669c1.21403,1.419 2.89547,2.35533 4.73914,2.64015l77.79967,0c1.84368,-0.28482 3.52511,-1.22115 4.73965,-2.64015c1.21403,-1.419 1.88182,-3.22707 1.88182,-5.09669c0,-1.86911 -0.66779,-3.67718 -1.88182,-5.09618c-1.21454,-1.419 -2.89597,-2.35533 -4.73965,-2.64015l0,0z" fill="#18191d" stroke="null" />
            <path id="svg_15" d="m245.22042,14.63779l-131.28059,0c-1.19776,-0.06525 -2.39602,0.11484 -3.52206,0.5292c-1.12604,0.41441 -2.15596,1.05448 -3.02668,1.88106c-0.87123,0.82658 -1.56446,1.82242 -2.03898,2.92664c-0.47402,1.10422 -0.71814,2.29369 -0.71814,3.49577c0,1.20203 0.24413,2.39149 0.71814,3.49572c0.47452,1.10422 1.16775,2.10006 2.03898,2.92664c0.87072,0.82663 1.90064,1.46665 3.02668,1.88106c1.12604,0.41441 2.32431,0.59445 3.52206,0.5292l131.28059,0c1.19776,0.06525 2.39602,-0.11479 3.52206,-0.5292c1.12604,-0.41441 2.15545,-1.05443 3.02668,-1.88106c0.87072,-0.82658 1.56446,-1.82242 2.03847,-2.92664c0.47402,-1.10422 0.71865,-2.29369 0.71865,-3.49572c0,-1.20208 -0.24464,-2.39154 -0.71865,-3.49577c-0.47402,-1.10422 -1.16775,-2.10006 -2.03847,-2.92664c-0.87123,-0.82658 -1.90064,-1.46665 -3.02668,-1.88106c-1.12604,-0.41436 -2.32431,-0.59445 -3.52206,-0.5292z" fill="#18191d" stroke="null" />
            <path id="svg_16" d="m771.56799,297.02194l-416.93885,0c-4.08813,0 -4.79102,-3.31404 -4.79102,-7.38489l0,-81.12439c0,-4.07033 0.70289,-7.38438 4.79102,-7.38438l416.93885,0c1.95303,0 3.82468,0.77816 5.20807,2.16308c1.38339,1.38492 2.15647,3.26318 2.15647,5.2213l0,81.12439c0,1.95862 -0.77307,3.83689 -2.15647,5.22181c-1.38339,1.38492 -3.25505,2.16308 -5.20807,2.16308l0,0z" fill="#18191d" stroke="null" />
            <path id="svg_17" d="m130.10877,261.50735c13.14327,0 23.79846,-10.67757 23.79846,-23.84932c0,-13.17175 -10.65519,-23.84932 -23.79846,-23.84932c-13.14327,0 -23.79795,10.67757 -23.79795,23.84932c0,13.17175 10.65468,23.84932 23.79795,23.84932z" fill="#4f46e5" stroke="null" />
            <path id="svg_18" d="m249.12546,229.93595l-77.79967,0c-1.11841,-0.18513 -2.26327,-0.12359 -3.35575,0.17954c-1.09197,0.30262 -2.10561,0.84021 -2.96972,1.57514c-0.86411,0.73493 -1.55835,1.64939 -2.0344,2.68033c-0.47605,1.03043 -0.72272,2.15291 -0.72272,3.28861c0,1.13571 0.24667,2.25819 0.72272,3.28861c0.47605,1.03093 1.17029,1.9454 2.0344,2.68033c0.86411,0.73442 1.87775,1.27201 2.96972,1.57514c1.09247,0.30313 2.23734,0.36416 3.35575,0.17954l77.79967,0c1.82639,-0.30211 3.48697,-1.24404 4.68472,-2.65897c1.19776,-1.41442 1.85538,-3.20927 1.85538,-5.06465c0,-1.85538 -0.65762,-3.65023 -1.85538,-5.06465c-1.19776,-1.41493 -2.85834,-2.35686 -4.68472,-2.65897l0,0z" fill="#0D0E15" stroke="null" />
            <path id="svg_19" d="m130.10877,343.18154c13.14327,0 23.79846,-10.67757 23.79846,-23.84932c0,-13.17175 -10.65519,-23.84932 -23.79846,-23.84932c-13.14327,0 -23.79795,10.67757 -23.79795,23.84932c0,13.17175 10.65468,23.84932 23.79795,23.84932z" fill="#2563eb" stroke="null" />
            <path id="svg_20" d="m249.12546,311.6076l-77.79967,0c-1.11841,-0.18513 -2.26327,-0.12359 -3.35575,0.17954c-1.09197,0.30313 -2.10561,0.84072 -2.96972,1.57514c-0.86411,0.73493 -1.55835,1.64939 -2.0344,2.68033c-0.47605,1.03043 -0.72272,2.15291 -0.72272,3.28861c0,1.13571 0.24667,2.25819 0.72272,3.28861c0.47605,1.03093 1.17029,1.9454 2.0344,2.68033c0.86411,0.73442 1.87775,1.27252 2.96972,1.57514c1.09247,0.30313 2.23734,0.36467 3.35575,0.17954l77.79967,0c1.82639,-0.30211 3.48697,-1.24404 4.68472,-2.65897c1.19776,-1.41442 1.85538,-3.20927 1.85538,-5.06465c0,-1.85538 -0.65762,-3.65023 -1.85538,-5.06465c-1.19776,-1.41493 -2.85834,-2.35686 -4.68472,-2.65897z" fill="#18191d" stroke="null" />
            <path id="svg_21" d="m130.10877,425.3501c13.14327,0 23.79846,-10.67808 23.79846,-23.84982c0,-13.17124 -10.65519,-23.84932 -23.79846,-23.84932c-13.14327,0 -23.79795,10.67808 -23.79795,23.84932c0,13.17175 10.65468,23.84982 23.79795,23.84982z" fill="#4f46e5" stroke="null" />
            <path id="svg_22" d="m249.12546,393.77564l-77.79967,0c-1.84368,0.28482 -3.52511,1.22166 -4.73914,2.64066c-1.21454,1.419 -1.88233,3.22656 -1.88233,5.09618c0,1.86962 0.66779,3.67718 1.88233,5.09618c1.21403,1.41951 2.89547,2.35584 4.73914,2.64066l77.79967,0c1.82639,-0.30211 3.48697,-1.24455 4.68472,-2.65897c1.19776,-1.41442 1.85538,-3.20927 1.85538,-5.06465c0,-1.85538 -0.65762,-3.65023 -1.85538,-5.06516c-1.19776,-1.41442 -2.85834,-2.35686 -4.68472,-2.65846l0,-0.02645l0,0.00001z" fill="#18191d" stroke="null" />
            <path id="svg_23" d="m130.10877,507.54306c13.14327,0 23.79846,-10.67757 23.79846,-23.84932c0,-13.17175 -10.65519,-23.84932 -23.79846,-23.84932c-13.14327,0 -23.79795,10.67757 -23.79795,23.84932c0,13.17175 10.65468,23.84932 23.79795,23.84932z" fill="#0284c7" stroke="null" />
            <path id="svg_24" d="m249.12546,475.94419l-77.79967,0c-1.84368,0.28482 -3.52511,1.22115 -4.73914,2.64066c-1.21454,1.419 -1.88233,3.22656 -1.88233,5.09618c0,1.86962 0.66779,3.67718 1.88233,5.09618c1.21403,1.419 2.89547,2.35584 4.73914,2.64066l77.79967,0c1.84368,-0.28482 3.52511,-1.22166 4.73965,-2.64066c1.21403,-1.419 1.88182,-3.22656 1.88182,-5.09618c0,-1.86962 -0.66779,-3.67718 -1.88182,-5.09618c-1.21454,-1.41951 -2.89597,-2.35584 -4.73965,-2.64066z" fill="#18191d" stroke="null" />
            <path id="svg_25" d="m251.10443,84.83057l-137.29479,0c-3.22148,0 -5.83264,2.61675 -5.83264,5.84484l0,13.88175c0,3.22809 2.61116,5.84484 5.83264,5.84484l137.29479,0c3.22148,0 5.83264,-2.61675 5.83264,-5.84484l0,-13.88175c0,-3.22809 -2.61116,-5.84484 -5.83264,-5.84484z" fill="#18191d" stroke="null" />
            <path id="svg_26" d="m309.48012,247.94042c13.14327,0 23.79846,-10.67757 23.79846,-23.84932c0,-13.17175 -10.65519,-23.84932 -23.79846,-23.84932c-13.14327,0 -23.79795,10.67757 -23.79795,23.84932c0,13.17175 10.65468,23.84932 23.79795,23.84932z" fill="#4f46e5" stroke="null" />
            <path id="svg_27" d="m357.23266,311.94785l414.33532,0c1.95811,0 3.83994,0.7807 5.22842,2.1702c1.38339,1.39001 2.16155,3.27488 2.16155,5.24012l0,104.66092c0,1.96523 -0.77816,3.85011 -2.16155,5.24012c-1.38848,1.3895 -3.2703,2.1702 -5.22842,2.1702l-416.93885,0c-1.27049,0 -2.48909,-0.50555 -3.38779,-1.40628c-0.89819,-0.90022 -1.40323,-2.12137 -1.40323,-3.39491l0,-107.27004c0,-1.96523 0.77918,-3.85011 2.16613,-5.24012c1.38645,-1.3895 3.26725,-2.1702 5.22842,-2.1702l0,0l0,-0.00001z" fill="#18191d" stroke="null" />
            <path id="svg_28" d="m309.48012,358.78491c13.14327,0 23.79846,-10.67808 23.79846,-23.84932c0,-13.17175 -10.65519,-23.84982 -23.79846,-23.84982c-13.14327,0 -23.79795,10.67808 -23.79795,23.84982c0,13.17124 10.65468,23.84932 23.79795,23.84932z" fill="#0D0E15" stroke="null" />
            <path id="svg_29" d="m333.27857,46.96859c-0.20446,6.1853 -2.79985,12.04896 -7.2379,16.35172c-4.43856,4.30327 -10.3719,6.70896 -16.54733,6.70896c-6.17543,0 -12.10928,-2.40568 -16.54733,-6.70896c-4.43805,-4.30276 -7.03395,-10.16642 -7.2379,-16.35172l47.57046,0z" fill="#2563eb" stroke="null" />
            <path id="svg_30" d="m349.83811,46.96859l0,131.82398c0,4.09678 0.70289,7.41082 4.79102,7.41082l416.93885,0c1.95303,-0.00712 3.82977,-0.79087 5.20807,-2.17986c1.38339,-1.38899 2.15647,-3.2698 2.15647,-5.23096l0,-131.82398l-429.09442,0l0.00001,0z" fill="#18191d" stroke="null" />
            <path id="svg_31" d="m770.57621,453.79208l-472.86461,0c-4.6303,0 -8.38378,3.76212 -8.38378,8.40209l0,30.4774c0,4.64048 3.75348,8.40209 8.38378,8.40209l472.86461,0c4.63335,0 8.38683,-3.76161 8.38683,-8.40209l0,-30.4774c0,-4.63997 -3.75348,-8.40209 -8.38683,-8.40209z" fill="#18191d" stroke="null" />
        </g>
    </g>
</svg>