
<svg width="1200" height="318" viewBox="0 0 1200 318" fill="none" xmlns="http://www.w3.org/2000/svg">
<g clip-path="url(#clip0_4168_27891)">
<g opacity="0.31">
<path d="M328 -161.961L600.531 -318.693L704.125 -258.883M328 -161.961L432.125 -101.844M328 -161.961L159.594 -64.7313M432.125 -101.844L536.25 -161.961M432.125 -101.844L496.406 -64.7313M704.125 -258.883L872.531 -161.654M704.125 -258.883L536.25 -161.961M872.531 -161.654L768.937 -101.844M872.531 -161.654L1144.53 -4.61476L1040.94 55.1951M704.656 -64.7313L665.344 -87.4284M704.656 -64.7313L664.812 -41.7275M704.656 -64.7313L768.937 -101.844M536.25 -161.961L640.375 -101.844M872.531 152.425L1040.94 55.1951M872.531 152.425L600.531 309.464L496.937 249.654M872.531 152.425L768.937 92.6146M1040.94 55.1951L872.531 -42.0343M872.531 -42.0343L768.406 18.0823M872.531 -42.0343L768.937 -101.844M704.125 55.1951L665.344 32.8048M704.125 55.1951L743.437 32.498M704.125 55.1951L768.937 92.6146M704.656 10.1077L665.344 32.8048M704.656 10.1077L718.469 18.0823M704.656 10.1077L729.625 -4.30803M665.344 32.8048L600.531 -4.61474M665.344 32.8048L601.062 69.9176M743.437 32.498L768.406 18.0823M743.437 32.498L718.469 18.0823M729.625 -4.30803L743.437 3.66662M729.625 -4.30803L664.812 -41.7275M768.406 18.0823L743.437 3.66662M743.437 3.66662L718.469 18.0823M664.812 -41.7275L600.531 -4.61474M664.812 -41.7275L625.5 -64.4246M600.531 -4.61474L536.25 -41.7275M600.531 -4.61474L496.937 55.1951M640.375 -101.844L665.344 -87.4284M640.375 -101.844L614.875 -87.1217M536.25 -41.7275L600.531 -78.8403M536.25 -41.7275L496.406 -64.7313M536.25 -41.7275L497.469 -19.3372M600.531 -78.8403L625.5 -64.4246M600.531 -78.8403L614.875 -87.1217M625.5 -64.4246L639.844 -72.706M665.344 -87.4284L639.844 -72.706M639.844 -72.706L614.875 -87.1217M768.937 92.6146L665.344 152.425M496.937 249.654L328.531 152.425M496.937 249.654L665.344 152.425M328.531 152.425L56 -4.92144L159.594 -64.7313M328.531 152.425L432.125 92.6147M159.594 -64.7313L328 32.4981M432.125 92.6147L328 32.4981M432.125 92.6147L496.937 55.1951M496.406 -64.7313L457.625 -42.341M328 32.4981L432.125 -27.6185M432.125 -27.6185L457.625 -42.341M432.125 -27.6185L457.625 -12.8961M601.062 69.9176L575.562 55.1951M601.062 69.9176L586.187 78.5057M496.937 55.1951L536.25 77.8922M665.344 152.425L561.75 92.6147M561.75 92.6147L536.25 77.8922M561.75 92.6147L586.187 78.5057M575.562 55.1951L560.687 63.7832M575.562 55.1951L471.969 -4.61474M536.25 77.8922L560.687 63.7832M560.687 63.7832L586.187 78.5057M471.969 -4.61474L497.469 -19.3372M471.969 -4.61474L457.625 -12.8961M457.625 -42.341L483.125 -27.6185M497.469 -19.3372L483.125 -27.6185M483.125 -27.6185L457.625 -12.8961" stroke="url(#paint0_radial_4168_27891)" stroke-width="0.5" stroke-linecap="round"/>
<path d="M328 -161.961L600.531 -318.693L704.125 -258.883M328 -161.961L432.125 -101.844M328 -161.961L159.594 -64.7313M432.125 -101.844L536.25 -161.961M432.125 -101.844L496.406 -64.7313M704.125 -258.883L872.531 -161.654M704.125 -258.883L536.25 -161.961M872.531 -161.654L768.937 -101.844M872.531 -161.654L1144.53 -4.61476L1040.94 55.1951M704.656 -64.7313L665.344 -87.4284M704.656 -64.7313L664.812 -41.7275M704.656 -64.7313L768.937 -101.844M536.25 -161.961L640.375 -101.844M872.531 152.425L1040.94 55.1951M872.531 152.425L600.531 309.464L496.937 249.654M872.531 152.425L768.937 92.6146M1040.94 55.1951L872.531 -42.0343M872.531 -42.0343L768.406 18.0823M872.531 -42.0343L768.937 -101.844M704.125 55.1951L665.344 32.8048M704.125 55.1951L743.437 32.498M704.125 55.1951L768.937 92.6146M704.656 10.1077L665.344 32.8048M704.656 10.1077L718.469 18.0823M704.656 10.1077L729.625 -4.30803M665.344 32.8048L600.531 -4.61474M665.344 32.8048L601.062 69.9176M743.437 32.498L768.406 18.0823M743.437 32.498L718.469 18.0823M729.625 -4.30803L743.437 3.66662M729.625 -4.30803L664.812 -41.7275M768.406 18.0823L743.437 3.66662M743.437 3.66662L718.469 18.0823M664.812 -41.7275L600.531 -4.61474M664.812 -41.7275L625.5 -64.4246M600.531 -4.61474L536.25 -41.7275M600.531 -4.61474L496.937 55.1951M640.375 -101.844L665.344 -87.4284M640.375 -101.844L614.875 -87.1217M536.25 -41.7275L600.531 -78.8403M536.25 -41.7275L496.406 -64.7313M536.25 -41.7275L497.469 -19.3372M600.531 -78.8403L625.5 -64.4246M600.531 -78.8403L614.875 -87.1217M625.5 -64.4246L639.844 -72.706M665.344 -87.4284L639.844 -72.706M639.844 -72.706L614.875 -87.1217M768.937 92.6146L665.344 152.425M496.937 249.654L328.531 152.425M496.937 249.654L665.344 152.425M328.531 152.425L56 -4.92144L159.594 -64.7313M328.531 152.425L432.125 92.6147M159.594 -64.7313L328 32.4981M432.125 92.6147L328 32.4981M432.125 92.6147L496.937 55.1951M496.406 -64.7313L457.625 -42.341M328 32.4981L432.125 -27.6185M432.125 -27.6185L457.625 -42.341M432.125 -27.6185L457.625 -12.8961M601.062 69.9176L575.562 55.1951M601.062 69.9176L586.187 78.5057M496.937 55.1951L536.25 77.8922M665.344 152.425L561.75 92.6147M561.75 92.6147L536.25 77.8922M561.75 92.6147L586.187 78.5057M575.562 55.1951L560.687 63.7832M575.562 55.1951L471.969 -4.61474M536.25 77.8922L560.687 63.7832M560.687 63.7832L586.187 78.5057M471.969 -4.61474L497.469 -19.3372M471.969 -4.61474L457.625 -12.8961M457.625 -42.341L483.125 -27.6185M497.469 -19.3372L483.125 -27.6185M483.125 -27.6185L457.625 -12.8961" stroke="url(#paint1_radial_4168_27891)" stroke-width="0.5" stroke-linecap="round"/>
</g>
</g>
<defs>
<radialGradient id="paint0_radial_4168_27891" cx="0" cy="0" r="1" gradientUnits="userSpaceOnUse" gradientTransform="translate(600.198 -4.54146) scale(235.302 258.637)">
<stop stop-color="#5B66A3"/>
<stop offset="1" stop-color="#8B92B6" stop-opacity="0"/>
</radialGradient>
<radialGradient id="paint1_radial_4168_27891" cx="0" cy="0" r="1" gradientUnits="userSpaceOnUse" gradientTransform="translate(600.164 -4.42985) rotate(0.0161472) scale(215.488 215.488)">
<stop stop-color="#4C3DFF"/>
<stop offset="0.323436" stop-color="#D630FF" stop-opacity="0.37"/>
<stop offset="0.567343" stop-color="#30B4FF" stop-opacity="0.47"/>
<stop offset="1" stop-color="#314B59" stop-opacity="0"/>
</radialGradient>
<clipPath id="clip0_4168_27891">
<rect width="1200" height="318" fill="white"/>
</clipPath>
</defs>
</svg>
